<?xml version="1.0" encoding="UTF-8"?>
<svg xmlns="http://www.w3.org/2000/svg" xmlns:xlink="http://www.w3.org/1999/xlink" width="285px" height="336px" viewBox="0 0 285 335" version="1.1">
<g id="surface1">
<path style=" stroke:none;fill-rule:nonzero;fill:rgb(24.705882%,23.921569%,33.72549%);fill-opacity:1;" d="M 280.859375 280.082031 L 90.859375 280.082031 C 88.515625 280.078125 86.613281 278.179688 86.609375 275.839844 L 86.609375 4.242188 C 86.613281 1.902344 88.515625 0.00390625 90.859375 0 L 280.859375 0 C 283.207031 0.00390625 285.109375 1.902344 285.109375 4.242188 L 285.109375 275.839844 C 285.109375 278.179688 283.207031 280.078125 280.859375 280.082031 Z M 280.859375 280.082031 "/>
<path style=" stroke:none;fill-rule:nonzero;fill:rgb(100%,100%,100%);fill-opacity:1;" d="M 276.859375 276.089844 L 94.859375 276.089844 C 92.515625 276.085938 90.613281 274.1875 90.609375 271.84375 L 90.609375 8.238281 C 90.613281 5.894531 92.515625 3.996094 94.859375 3.992188 L 276.859375 3.992188 C 279.207031 3.996094 281.109375 5.894531 281.109375 8.238281 L 281.109375 271.84375 C 281.109375 274.1875 279.207031 276.085938 276.859375 276.089844 Z M 276.859375 276.089844 "/>
<path style=" stroke:none;fill-rule:nonzero;fill:rgb(94.117647%,94.117647%,94.117647%);fill-opacity:1;" d="M 144.644531 262.265625 C 128.453125 240.925781 134.875 216.570312 125.390625 199.578125 C 89.035156 134.457031 133.800781 140.457031 184.410156 153.121094 L 184.53125 154.523438 C 152.320312 159.488281 131.136719 176.042969 126.410156 199.941406 C 122.738281 218.511719 129.476562 240.289062 145.386719 261.257812 Z M 144.644531 262.265625 "/>
<path style=" stroke:none;fill-rule:nonzero;fill:rgb(94.117647%,94.117647%,94.117647%);fill-opacity:1;" d="M 180.207031 182.84375 L 179.871094 181.503906 C 197.941406 173.324219 196.390625 148.957031 212.558594 143.390625 C 335.726562 101.003906 214.144531 96.222656 186.796875 73.800781 C 162.34375 53.75 135.691406 30.4375 101.820312 18.433594 L 102.089844 17.066406 C 136.109375 29.125 166.4375 48.890625 187.480469 72.722656 C 208.632812 96.671875 217.898438 121.898438 213.578125 143.753906 C 210.171875 160.988281 198.632812 174.503906 180.207031 182.84375 Z M 180.207031 182.84375 "/>
<path style=" stroke:none;fill-rule:nonzero;fill:rgb(100%,74.901961%,38.823529%);fill-opacity:1;" d="M 131.015625 135.878906 C 122.757812 135.226562 132.5 129.769531 133.152344 121.523438 C 133.800781 113.273438 141.027344 107.113281 149.289062 107.765625 C 157.550781 108.417969 163.714844 115.632812 163.058594 123.882812 C 162.40625 132.128906 139.273438 136.53125 131.015625 135.878906 Z M 131.015625 135.878906 "/>
<path style=" stroke:none;fill-rule:nonzero;fill:rgb(100%,74.901961%,38.823529%);fill-opacity:1;" d="M 210.308594 84.539062 C 202.050781 83.890625 195.886719 76.675781 196.539062 68.429688 C 197.191406 60.183594 180.789062 54.667969 189.046875 55.320312 C 197.308594 55.96875 227.097656 62.542969 226.445312 70.789062 C 225.792969 79.035156 218.570312 85.191406 210.308594 84.539062 Z M 210.308594 84.539062 "/>
<path style=" stroke:none;fill-rule:nonzero;fill:rgb(24.705882%,23.921569%,33.72549%);fill-opacity:1;" d="M 228.386719 65.742188 C 229.472656 67.996094 228.832031 70.601562 227.394531 72.546875 C 225.761719 74.761719 223.160156 75.855469 220.492188 76.214844 C 217.628906 76.5625 214.726562 76.324219 211.957031 75.511719 C 209.285156 74.742188 206.515625 73.09375 205.964844 70.148438 C 205.597656 68.183594 206.4375 66.089844 208.480469 65.542969 C 210.144531 65.121094 211.910156 65.601562 213.136719 66.804688 C 214.832031 68.566406 214.703125 71.394531 213.625 73.441406 C 212.355469 75.851562 209.820312 77.179688 207.210938 77.617188 C 204.113281 78.140625 200.996094 77.410156 198.078125 76.375 C 194.910156 75.25 191.835938 73.847656 188.726562 72.558594 C 182.671875 70.046875 176.484375 67.6875 169.96875 66.6875 C 160.019531 65.160156 148.210938 67.539062 142.117188 76.25 C 138.828125 80.953125 137.898438 86.847656 138.605469 92.460938 C 139.351562 98.375 141.953125 103.8125 145.394531 108.628906 C 147.21875 111.132812 149.207031 113.511719 151.351562 115.746094 C 152.78125 117.132812 153.226562 119.242188 152.484375 121.085938 C 150.597656 125.71875 143.054688 124.242188 142.492188 119.46875 C 142.234375 117.300781 143.449219 115.066406 144.960938 113.597656 C 146.679688 111.992188 148.84375 110.945312 151.171875 110.59375 C 156.066406 109.777344 161.242188 111.589844 164.984375 114.738281 C 169.210938 118.292969 171.59375 123.699219 172.847656 128.960938 C 174.273438 134.953125 174.347656 141.113281 174.480469 147.238281 C 174.621094 153.503906 174.859375 159.84375 176.660156 165.894531 C 178.125 170.761719 180.382812 175.355469 183.347656 179.484375 C 189.269531 187.808594 197.691406 194.039062 207.390625 197.273438 C 209.734375 198.035156 212.140625 198.597656 214.582031 198.957031 C 215.535156 199.097656 215.652344 197.605469 214.699219 197.464844 C 204.0625 195.890625 194.28125 190.136719 187.277344 182.054688 C 183.769531 178.023438 180.996094 173.40625 179.082031 168.417969 C 176.800781 162.40625 176.222656 156.023438 176.035156 149.644531 C 175.84375 143.128906 175.949219 136.554688 174.640625 130.136719 C 173.488281 124.464844 171.222656 118.71875 167.027344 114.585938 C 163.328125 110.941406 158.035156 108.6875 152.808594 108.929688 C 147.941406 109.152344 142.738281 111.828125 141.292969 116.789062 C 140.613281 119.113281 141.046875 121.609375 142.824219 123.339844 C 144.890625 125.296875 147.886719 125.929688 150.570312 124.972656 C 153.535156 123.691406 155.039062 120.375 154.054688 117.308594 C 153.652344 116.21875 153.011719 115.238281 152.171875 114.433594 C 147.785156 109.753906 143.753906 104.515625 141.570312 98.417969 C 139.53125 92.734375 139.113281 86.195312 141.464844 80.539062 C 145.914062 69.828125 158.835938 66.609375 169.359375 68.109375 C 176.246094 69.085938 182.765625 71.691406 189.144531 74.355469 C 192.402344 75.714844 195.640625 77.226562 199.019531 78.265625 C 202.042969 79.199219 205.289062 79.667969 208.40625 78.902344 C 211.125 78.234375 213.625 76.65625 214.945312 74.128906 C 216.140625 71.835938 216.347656 68.921875 214.925781 66.675781 C 212.867188 63.425781 207.183594 62.691406 205.113281 66.34375 C 203.738281 68.765625 204.414062 71.867188 206.21875 73.875 C 208.242188 76.128906 211.269531 77.050781 214.171875 77.511719 C 219.648438 78.390625 226.394531 77.703125 229.328125 72.296875 C 230.535156 70.070312 230.859375 67.417969 229.738281 65.089844 C 229.546875 64.734375 229.109375 64.589844 228.746094 64.765625 C 228.382812 64.941406 228.222656 65.375 228.386719 65.742188 Z M 228.386719 65.742188 "/>
<path style=" stroke:none;fill-rule:nonzero;fill:rgb(100%,74.901961%,38.823529%);fill-opacity:1;" d="M 210.761719 199.261719 C 202.003906 198.570312 178.589844 210.535156 172.25 205.386719 C 171.457031 204.75 170.691406 204.082031 169.953125 203.378906 C 167.527344 201.109375 165.386719 198.554688 163.578125 195.773438 C 163.261719 195.304688 162.964844 194.832031 162.675781 194.351562 C 161.660156 192.652344 160.765625 190.882812 160 189.058594 C 159.867188 188.726562 159.730469 188.390625 159.597656 188.054688 C 152.230469 169.042969 159.710938 147.503906 177.28125 137.125 C 194.851562 126.75 217.359375 130.578125 230.496094 146.179688 C 230.835938 146.578125 231.164062 146.984375 231.488281 147.398438 C 234.71875 151.527344 237.132812 156.230469 238.613281 161.257812 C 238.613281 161.261719 238.617188 161.261719 238.617188 161.269531 C 240.820312 168.808594 240.855469 176.8125 238.71875 184.371094 L 238.71875 184.378906 C 238.671875 184.546875 238.621094 184.710938 238.570312 184.878906 C 233.097656 203.363281 230.777344 200.839844 210.761719 199.261719 Z M 210.761719 199.261719 "/>
<path style=" stroke:none;fill-rule:nonzero;fill:rgb(24.705882%,23.921569%,33.72549%);fill-opacity:1;" d="M 160.1875 189.078125 C 160.125 189.078125 160.0625 189.070312 160 189.058594 C 159.867188 188.726562 159.730469 188.390625 159.597656 188.054688 C 159.714844 187.765625 159.996094 187.578125 160.308594 187.585938 C 161.066406 187.582031 161.820312 187.496094 162.558594 187.328125 C 168.972656 185.878906 172.710938 179.324219 174.3125 173.46875 C 176.28125 166.308594 176.308594 158.613281 179.859375 151.929688 C 181.242188 149.1875 183.269531 146.816406 185.773438 145.03125 C 188.519531 143.171875 191.859375 142.390625 195.148438 142.839844 C 202.886719 143.863281 208.535156 149.8125 215.71875 152.261719 C 218.679688 153.269531 221.832031 153.519531 224.789062 152.371094 C 227.304688 151.398438 229.597656 149.472656 230.117188 146.710938 C 230.152344 146.484375 230.292969 146.289062 230.496094 146.179688 C 230.835938 146.578125 231.164062 146.984375 231.488281 147.398438 C 231.371094 147.898438 231.203125 148.382812 230.988281 148.847656 C 229.726562 151.492188 227.207031 153.203125 224.464844 154.058594 C 221.292969 155.042969 217.992188 154.667969 214.90625 153.5625 C 207.707031 150.988281 201.785156 144.621094 193.835938 144.222656 C 186.945312 143.882812 182.1875 149.535156 179.894531 155.433594 C 177.058594 162.734375 177.480469 170.914062 174.296875 178.105469 C 171.792969 183.761719 166.777344 189.050781 160.1875 189.078125 Z M 160.1875 189.078125 "/>
<path style=" stroke:none;fill-rule:nonzero;fill:rgb(24.705882%,23.921569%,33.72549%);fill-opacity:1;" d="M 163.578125 195.773438 C 163.261719 195.304688 162.964844 194.832031 162.675781 194.351562 C 162.816406 194.238281 163 194.195312 163.175781 194.226562 C 169.605469 194.984375 176.082031 193.261719 181.277344 189.410156 C 183.558594 187.742188 185.542969 185.707031 187.140625 183.378906 C 188.804688 180.949219 189.808594 178.210938 190.933594 175.511719 C 192.042969 172.855469 193.34375 170.167969 195.546875 168.242188 C 197.792969 166.28125 200.691406 165.457031 203.628906 165.371094 C 210.585938 165.164062 216.65625 169.113281 223.425781 169.925781 C 226.445312 170.289062 229.445312 169.855469 232.03125 168.171875 C 234.261719 166.714844 235.886719 164.433594 235.785156 161.695312 C 235.746094 160.792969 237.0625 160.851562 237.257812 161.648438 C 237.269531 161.703125 237.277344 161.757812 237.277344 161.8125 C 237.398438 165 235.4375 167.722656 232.855469 169.40625 C 229.855469 171.371094 226.351562 171.855469 222.847656 171.359375 C 216.0625 170.390625 209.789062 166.292969 202.769531 166.910156 C 199.789062 167.082031 197.023438 168.507812 195.15625 170.832031 C 193.308594 173.199219 192.332031 176.09375 191.191406 178.835938 C 190.113281 181.582031 188.597656 184.132812 186.710938 186.402344 C 184.804688 188.617188 182.550781 190.511719 180.042969 192.015625 C 175.109375 195.023438 169.328125 196.34375 163.578125 195.773438 Z M 163.578125 195.773438 "/>
<path style=" stroke:none;fill-rule:nonzero;fill:rgb(24.705882%,23.921569%,33.72549%);fill-opacity:1;" d="M 172.25 205.386719 C 171.457031 204.75 170.691406 204.082031 169.953125 203.378906 C 173.773438 204.351562 177.753906 204.515625 181.640625 203.867188 C 186.53125 203.082031 191.144531 201.078125 195.054688 198.042969 C 197.003906 196.519531 198.722656 194.726562 200.15625 192.714844 C 201.792969 190.414062 203.222656 187.875 205.691406 186.351562 C 211.046875 183.046875 217.460938 186.066406 222.808594 187.691406 C 225.601562 188.542969 228.597656 189.121094 231.441406 188.175781 C 233.644531 187.445312 235.785156 185.820312 236.222656 183.421875 C 236.390625 182.476562 237.890625 182.589844 237.71875 183.539062 C 237.683594 183.714844 237.644531 183.894531 237.601562 184.070312 C 236.914062 186.675781 234.777344 188.554688 232.257812 189.46875 C 228.96875 190.652344 225.5625 190.097656 222.296875 189.101562 C 216.921875 187.46875 209.902344 184.105469 205.039062 188.742188 C 202.988281 190.699219 201.730469 193.351562 199.882812 195.488281 C 198.234375 197.40625 196.328125 199.085938 194.226562 200.492188 C 187.761719 204.789062 179.929688 206.535156 172.25 205.386719 Z M 172.25 205.386719 "/>
<path style=" stroke:none;fill-rule:nonzero;fill:rgb(90.196078%,90.196078%,90.196078%);fill-opacity:1;" d="M 277.109375 311.785156 L 241.609375 311.785156 C 239.265625 311.78125 237.363281 309.882812 237.359375 307.539062 L 237.359375 295.058594 C 237.363281 292.71875 239.265625 290.820312 241.609375 290.816406 L 277.109375 290.816406 C 279.457031 290.820312 281.359375 292.71875 281.359375 295.058594 L 281.359375 307.539062 C 281.359375 309.882812 279.457031 311.78125 277.109375 311.785156 Z M 277.109375 311.785156 "/>
<path style=" stroke:none;fill-rule:nonzero;fill:rgb(100%,71.372549%,71.372549%);fill-opacity:1;" d="M 71.242188 166.933594 L 72.179688 175.609375 L 71.625 186.988281 L 96.867188 183.996094 L 99.242188 166.933594 L 96.21875 166.960938 Z M 71.242188 166.933594 "/>
<path style=" stroke:none;fill-rule:nonzero;fill:rgb(80%,80%,80%);fill-opacity:1;" d="M 101.359375 140.039062 L 93.558594 137.160156 L 90.222656 132.324219 L 78.226562 131.125 L 70.824219 135.859375 L 64.621094 139.011719 L 64.730469 155.480469 L 71.859375 184.972656 L 97.359375 183.976562 L 100.71875 162.945312 C 100.71875 162.945312 108.515625 152.488281 100.117188 146.5 Z M 101.359375 140.039062 "/>
<path style=" stroke:none;fill-rule:nonzero;fill:rgb(100%,71.372549%,71.372549%);fill-opacity:1;" d="M 58.148438 324.484375 L 63.667969 324.484375 L 66.292969 303.230469 L 58.148438 303.230469 Z M 58.148438 324.484375 "/>
<path style=" stroke:none;fill-rule:nonzero;fill:rgb(18.431373%,18.039216%,25.490196%);fill-opacity:1;" d="M 56.347656 320.710938 L 65.164062 320.183594 L 65.164062 323.957031 L 73.546875 329.738281 C 74.394531 330.324219 74.765625 331.394531 74.457031 332.378906 C 74.152344 333.363281 73.238281 334.03125 72.207031 334.03125 L 61.707031 334.03125 L 59.898438 330.300781 L 59.191406 334.03125 L 55.234375 334.03125 Z M 56.347656 320.710938 "/>
<path style=" stroke:none;fill-rule:nonzero;fill:rgb(100%,71.372549%,71.372549%);fill-opacity:1;" d="M 89.148438 324.484375 L 94.667969 324.484375 L 97.292969 303.230469 L 89.148438 303.230469 Z M 89.148438 324.484375 "/>
<path style=" stroke:none;fill-rule:nonzero;fill:rgb(18.431373%,18.039216%,25.490196%);fill-opacity:1;" d="M 87.347656 320.710938 L 96.164062 320.183594 L 96.164062 323.957031 L 104.546875 329.738281 C 105.394531 330.324219 105.765625 331.394531 105.457031 332.378906 C 105.152344 333.363281 104.238281 334.03125 103.207031 334.03125 L 92.707031 334.03125 L 90.898438 330.300781 L 90.191406 334.03125 L 86.234375 334.03125 Z M 87.347656 320.710938 "/>
<path style=" stroke:none;fill-rule:nonzero;fill:rgb(18.431373%,18.039216%,25.490196%);fill-opacity:1;" d="M 55.765625 306.15625 L 55.828125 306.15625 L 56.886719 271.59375 C 55.492188 268.910156 55.539062 265.703125 57.007812 263.054688 L 57.160156 262.78125 L 56.765625 260.957031 C 56.257812 258.613281 56.492188 256.171875 57.429688 253.964844 L 58.417969 221.726562 C 54.882812 198.835938 71.742188 183.90625 71.742188 183.90625 L 96.996094 183.90625 L 102.417969 202.507812 C 106 237.375 105.351562 271.355469 99.664062 304.273438 L 99.816406 304.351562 C 100.375 304.542969 100.617188 305.316406 100.351562 306.078125 C 100.089844 306.835938 99.425781 307.296875 98.867188 307.105469 L 85.527344 306.640625 C 84.972656 306.449219 84.730469 305.675781 84.992188 304.917969 C 85.257812 304.15625 85.921875 303.695312 86.480469 303.886719 L 87.386719 304.347656 L 85.453125 270.996094 L 85.667969 264.90625 L 85.226562 257.996094 L 83.183594 226.910156 L 75.445312 265.136719 L 67.539062 306.539062 C 67.984375 306.945312 68.136719 307.578125 67.917969 308.140625 C 67.703125 308.699219 67.160156 309.070312 66.558594 309.066406 L 55.765625 309.066406 C 54.960938 309.066406 54.308594 308.414062 54.308594 307.613281 C 54.308594 306.808594 54.960938 306.15625 55.765625 306.15625 Z M 55.765625 306.15625 "/>
<path style=" stroke:none;fill-rule:nonzero;fill:rgb(100%,71.372549%,71.372549%);fill-opacity:1;" d="M 53.140625 208.242188 C 52.164062 207.304688 51.65625 205.980469 51.75 204.632812 C 51.847656 203.28125 52.535156 202.042969 53.632812 201.25 L 60.359375 160.011719 L 68.253906 162.785156 L 60.257812 202.507812 C 61.496094 204.480469 61.0625 207.070312 59.25 208.53125 C 57.433594 209.996094 54.808594 209.871094 53.140625 208.242188 Z M 53.140625 208.242188 "/>
<path style=" stroke:none;fill-rule:nonzero;fill:rgb(80%,80%,80%);fill-opacity:1;" d="M 65.683594 138.976562 C 65.683594 138.976562 63.421875 138.125 62.597656 143.175781 C 61.941406 147.21875 55.519531 171.628906 56.128906 177.28125 C 54.578125 177.824219 53.59375 179.347656 53.734375 180.980469 L 65.574219 181.039062 C 67.386719 179.066406 67.621094 176.683594 66.746094 176.097656 L 68.382812 168.882812 L 76.097656 145.601562 L 67.332031 139.5625 Z M 65.683594 138.976562 "/>
<path style=" stroke:none;fill-rule:nonzero;fill:rgb(100%,71.372549%,71.372549%);fill-opacity:1;" d="M 107.648438 210 C 108.699219 209.148438 109.320312 207.875 109.34375 206.519531 C 109.363281 205.167969 108.785156 203.875 107.761719 202.988281 L 105.359375 161.507812 L 96.511719 163.410156 L 101.054688 203.675781 C 99.648438 205.53125 99.855469 208.148438 101.539062 209.761719 C 103.21875 211.375 105.84375 211.476562 107.648438 210 Z M 107.648438 210 "/>
<path style=" stroke:none;fill-rule:nonzero;fill:rgb(80%,80%,80%);fill-opacity:1;" d="M 101.121094 139.910156 C 101.121094 139.910156 103.449219 139.257812 103.832031 144.359375 C 104.140625 148.445312 108.433594 173.3125 107.339844 178.894531 C 108.835938 179.570312 109.6875 181.171875 109.40625 182.785156 L 97.605469 181.828125 C 95.972656 179.707031 95.941406 177.3125 96.863281 176.804688 L 95.855469 169.472656 L 90.175781 145.617188 L 99.429688 140.355469 Z M 101.121094 139.910156 "/>
<path style=" stroke:none;fill-rule:nonzero;fill:rgb(100%,72.156863%,72.156863%);fill-opacity:1;" d="M 90.898438 118.355469 C 90.898438 124.9375 85.554688 130.273438 78.960938 130.273438 C 72.367188 130.273438 67.023438 124.9375 67.023438 118.355469 C 67.023438 111.769531 72.367188 106.433594 78.960938 106.433594 C 85.554688 106.433594 90.898438 111.769531 90.898438 118.355469 Z M 90.898438 118.355469 "/>
<path style=" stroke:none;fill-rule:nonzero;fill:rgb(18.431373%,18.039216%,25.490196%);fill-opacity:1;" d="M 55.234375 143.40625 C 52.707031 142.511719 50.183594 141.617188 47.65625 140.71875 C 48.089844 139.988281 48.644531 139.335938 49.296875 138.789062 C 51.703125 136.785156 55.023438 136.421875 58.074219 135.746094 C 61.132812 135.070312 64.453125 133.683594 65.570312 130.765625 C 66.734375 127.730469 65.050781 124.453125 64.070312 121.359375 C 62.703125 117.046875 62.730469 112.226562 64.566406 108.089844 C 66.398438 103.953125 70.125 100.601562 74.550781 99.613281 C 78.972656 98.632812 83.972656 100.234375 86.691406 103.847656 C 90.316406 102.761719 94.1875 104.550781 95.703125 108.011719 C 96.335938 109.597656 96.355469 111.507812 95.414062 112.933594 C 94.46875 114.359375 92.449219 115.089844 90.929688 114.296875 L 91.8125 112.0625 C 89.085938 112.984375 87.316406 117.90625 87.683594 120.757812 C 88.046875 123.601562 89.710938 126.097656 91.402344 128.421875 C 93.089844 130.746094 94.890625 133.09375 95.617188 135.871094 C 96.660156 139.867188 95.25 144.238281 92.636719 147.441406 C 90.019531 150.644531 86.339844 152.820312 82.523438 154.417969 C 79.671875 155.617188 76.703125 156.53125 73.667969 157.144531 C 74.210938 156.089844 74.746094 155.035156 75.289062 153.984375 L 68.859375 157.867188 C 67.613281 157.988281 66.359375 158.0625 65.109375 158.085938 C 61.457031 158.148438 57.738281 157.765625 54.398438 156.3125 C 51.054688 154.851562 48.117188 152.210938 46.90625 148.773438 C 46.519531 147.664062 46.335938 146.492188 46.363281 145.3125 C 49.320312 144.675781 52.277344 144.039062 55.234375 143.40625 Z M 55.234375 143.40625 "/>
<path style=" stroke:none;fill-rule:nonzero;fill:rgb(94.901961%,94.901961%,94.901961%);fill-opacity:1;" d="M 43.195312 320.902344 C 42.4375 320.9375 41.738281 320.496094 41.445312 319.796875 C 41.152344 319.097656 41.328125 318.289062 41.886719 317.777344 C 41.929688 317.59375 41.964844 317.464844 42.011719 317.285156 C 41.992188 317.246094 41.976562 317.207031 41.960938 317.167969 C 41.199219 315.367188 39.429688 314.203125 37.476562 314.210938 C 35.519531 314.21875 33.761719 315.394531 33.011719 317.199219 C 31.546875 320.71875 29.683594 324.246094 29.226562 327.96875 C 29.023438 329.613281 29.109375 331.28125 29.476562 332.894531 C 26.039062 325.410156 24.253906 317.269531 24.242188 309.03125 C 24.242188 306.964844 24.355469 304.898438 24.585938 302.847656 C 24.777344 301.160156 25.042969 299.488281 25.378906 297.828125 C 27.222656 288.820312 31.179688 280.378906 36.921875 273.195312 C 39.703125 271.679688 41.953125 269.351562 43.367188 266.519531 C 43.878906 265.503906 44.238281 264.417969 44.441406 263.296875 C 44.125 263.335938 43.808594 263.363281 43.492188 263.382812 C 43.394531 263.390625 43.292969 263.394531 43.195312 263.398438 L 43.160156 263.402344 C 42.453125 263.433594 41.796875 263.046875 41.480469 262.421875 C 41.164062 261.792969 41.246094 261.035156 41.6875 260.488281 C 41.824219 260.324219 41.960938 260.15625 42.09375 259.992188 C 42.300781 259.734375 42.511719 259.480469 42.71875 259.226562 C 42.742188 259.199219 42.765625 259.175781 42.785156 259.148438 C 43.019531 258.855469 43.257812 258.566406 43.492188 258.277344 C 43.0625 257.605469 42.480469 257.046875 41.796875 256.636719 C 39.425781 255.25 36.15625 256.210938 34.445312 258.351562 C 32.726562 260.492188 32.402344 263.496094 33 266.171875 C 33.585938 268.449219 34.554688 270.609375 35.867188 272.558594 C 35.738281 272.722656 35.605469 272.882812 35.476562 273.046875 C 33.128906 276.0625 31.078125 279.304688 29.363281 282.71875 C 29.78125 278.894531 29.28125 275.019531 27.910156 271.425781 C 26.515625 268.070312 23.910156 265.25 21.613281 262.351562 C 18.851562 258.871094 13.195312 260.386719 12.707031 264.800781 C 12.703125 264.84375 12.699219 264.886719 12.695312 264.929688 C 13.035156 265.121094 13.371094 265.324219 13.695312 265.542969 C 14.535156 266.101562 14.945312 267.121094 14.726562 268.105469 C 14.507812 269.089844 13.707031 269.839844 12.707031 269.996094 L 12.65625 270.003906 C 12.78125 271.230469 12.996094 272.445312 13.300781 273.640625 C 15.09375 280.386719 19.625 286.082031 25.800781 289.351562 C 26 289.457031 26.195312 289.558594 26.398438 289.65625 C 24.671875 294.535156 23.589844 299.621094 23.179688 304.78125 C 22.945312 307.824219 22.960938 310.882812 23.21875 313.925781 L 23.203125 313.816406 C 22.546875 310.433594 20.738281 307.382812 18.089844 305.175781 C 14.152344 301.945312 8.589844 300.757812 4.339844 298.164062 C 3.417969 297.570312 2.238281 297.570312 1.3125 298.15625 C 0.386719 298.742188 -0.109375 299.808594 0.03125 300.894531 C 0.0390625 300.933594 0.0429688 300.96875 0.0507812 301.007812 C 0.683594 301.265625 1.300781 301.5625 1.894531 301.894531 C 2.238281 302.089844 2.570312 302.292969 2.898438 302.507812 C 3.738281 303.070312 4.148438 304.085938 3.929688 305.070312 C 3.710938 306.058594 2.910156 306.808594 1.910156 306.960938 L 1.859375 306.96875 C 1.824219 306.972656 1.792969 306.980469 1.757812 306.984375 C 2.839844 309.5625 4.359375 311.9375 6.246094 314.003906 C 10.960938 319.054688 17.554688 321.941406 24.46875 321.984375 L 24.472656 321.984375 C 25.402344 326.015625 26.75 329.941406 28.488281 333.691406 L 42.835938 333.691406 C 42.886719 333.53125 42.933594 333.367188 42.980469 333.210938 C 41.652344 333.292969 40.320312 333.214844 39.011719 332.972656 C 40.074219 331.667969 41.140625 330.355469 42.203125 329.050781 C 42.226562 329.027344 42.25 329 42.269531 328.972656 C 42.808594 328.304688 43.355469 327.644531 43.894531 326.976562 C 43.925781 324.929688 43.6875 322.890625 43.195312 320.902344 Z M 43.195312 320.902344 "/>
<path style=" stroke:none;fill-rule:nonzero;fill:rgb(79.215686%,79.215686%,79.215686%);fill-opacity:1;" d="M 139.550781 334.695312 L 1.675781 334.847656 C 1.347656 334.847656 1.082031 334.582031 1.082031 334.253906 C 1.082031 333.925781 1.347656 333.660156 1.675781 333.660156 L 139.550781 333.507812 C 139.882812 333.507812 140.148438 333.773438 140.148438 334.101562 C 140.148438 334.429688 139.882812 334.695312 139.550781 334.695312 Z M 139.550781 334.695312 "/>
</g>
</svg>
